<?xml version="1.0" standalone="no"?>
<!DOCTYPE svg PUBLIC "-//W3C//DTD SVG 20010904//EN"
 "http://www.w3.org/TR/2001/REC-SVG-20010904/DTD/svg10.dtd">
<svg version="1.0" xmlns="http://www.w3.org/2000/svg"
 width="700.000000pt" height="700.000000pt" viewBox="0 0 700.000000 700.000000"
 preserveAspectRatio="xMidYMid meet">
<metadata>
Created by potrace 1.14, written by Peter Selinger 2001-2017
</metadata>
<g transform="translate(0.000000,700.000000) scale(0.100000,-0.100000)"
fill="#000000" stroke="none">
<path d="M555 6730 c-147 -16 -264 -131 -283 -277 -4 -32 -6 -1437 -6 -3123
l1 -3065 22 -58 c27 -69 95 -143 166 -177 l50 -25 3125 0 3125 0 50 27 c65 34
129 98 163 163 l27 50 0 3125 0 3125 -25 50 c-34 71 -108 139 -177 166 l-58
22 -3065 1 c-1686 0 -3087 -1 -3115 -4z m5796 -664 c3 -53 4 -5402 2 -5411 -2
-7 -915 -10 -2716 -9 -1491 1 -2715 2 -2718 3 -3 1 -6 1224 -6 2720 l0 2719
2719 0 2718 0 1 -22z"/>
<path d="M1623 5728 c-155 -16 -282 -118 -333 -268 -21 -62 -23 -82 -23 -385
-1 -176 2 -332 6 -348 4 -15 24 -45 43 -67 65 -72 168 -78 242 -14 22 19 46
50 52 70 8 23 12 132 12 327 0 229 3 297 14 314 13 21 17 21 314 21 196 0 312
4 334 12 51 17 103 79 110 132 4 24 4 52 2 63 -3 11 -5 25 -5 32 -1 20 -61 83
-95 100 -26 13 -76 16 -316 17 -157 1 -317 -2 -357 -6z"/>
<path d="M4885 5049 c-88 -16 -178 -31 -200 -34 -65 -10 -222 -36 -305 -50
-26 -5 -116 -20 -184 -31 -21 -3 -48 -8 -60 -10 -11 -2 -39 -7 -61 -10 -22 -2
-51 -7 -65 -9 -14 -2 -92 -16 -175 -30 -82 -14 -166 -28 -185 -31 -19 -3 -75
-12 -125 -20 -49 -8 -103 -17 -120 -20 -16 -2 -55 -9 -85 -14 -85 -15 -112
-19 -155 -25 -22 -3 -92 -15 -155 -26 -63 -10 -130 -22 -147 -25 l-33 -5 0
-1141 c0 -1081 -1 -1140 -17 -1133 -67 25 -244 31 -332 11 -98 -23 -215 -76
-306 -141 -329 -233 -315 -610 26 -689 66 -16 211 -16 274 -1 221 52 422 190
503 344 61 114 58 58 58 1239 -1 955 1 1085 14 1092 8 4 37 11 63 14 27 4 59
9 70 12 12 2 36 6 52 9 17 3 41 7 55 10 14 3 41 7 60 10 19 3 46 7 60 10 14 3
48 7 75 11 28 3 52 8 55 9 3 2 26 6 50 10 25 3 86 13 135 21 50 8 104 17 120
20 17 2 42 7 57 10 15 3 41 7 59 9 18 3 85 13 148 24 64 11 134 22 156 26 22
3 90 14 150 25 61 10 130 22 155 25 24 4 47 8 50 10 3 1 32 6 65 10 32 3 62 8
65 10 3 2 29 6 58 10 l52 6 0 -905 c0 -498 -1 -906 -2 -906 -2 0 -25 7 -52 15
-35 11 -82 14 -165 11 -136 -4 -240 -34 -366 -107 -84 -48 -198 -151 -239
-217 -108 -172 -88 -353 50 -451 73 -53 145 -74 262 -77 203 -5 412 79 558
223 58 58 79 84 103 126 17 30 41 95 45 120 1 7 4 17 7 22 11 18 5 2628 -6
2631 -5 1 -82 -11 -170 -27z"/>
<path d="M1374 4161 c-194 -87 -90 -387 115 -331 129 34 173 191 82 294 -43
48 -133 65 -197 37z"/>
<path d="M5846 2872 c-41 -9 -94 -52 -114 -92 -58 -117 24 -254 152 -254 138
0 222 136 159 255 -37 70 -119 108 -197 91z"/>
<path d="M5815 2081 c-98 -45 -104 -70 -105 -431 0 -168 -4 -301 -10 -310 -8
-13 -55 -15 -311 -17 -326 -1 -360 -6 -408 -57 -47 -50 -59 -143 -25 -207 20
-39 72 -76 119 -86 49 -10 591 -9 658 1 136 21 256 120 308 253 21 55 22 74
25 383 2 209 -1 338 -8 360 -17 54 -45 88 -93 110 -54 25 -98 25 -150 1z"/>
</g>
</svg>
