<svg xmlns="http://www.w3.org/2000/svg" viewBox="0 0 21 21" fill="#000000" stroke="#000000" stroke-width=".2">
    <style>
        @media (prefers-color-scheme: dark) {
            .app-icon { fill: #fff; stroke: #fff; }
        }
    </style>

    <path class="app-icon" d="M1.77.9a.87.87 0 0 0-.87.87V20a.894.894 0 0 0 0 .03c0 .48.39.87.87.87H20a.867.867 0 0 0 .63-.27.867.867 0 0 0 .27-.63V1.77A.87.87 0 0 0 20 .9H1.77Zm.869 1.738h16.523v16.524H2.639V2.637Zm6.03 4.307-.084.014v6.912a1.354 1.354 0 0 0-.639-.158 2.249 2.249 0 0 0-1.016.24c-.393.192-.698.47-.871.767-.173.296-.22.626-.066.905.153.277.462.429.815.466.355.037.77-.039 1.163-.231.32-.156.582-.368.762-.602a1.21 1.21 0 0 0 .266-.64h.008V8.047l.597-.107h.002l5.072-.839v5.72a1.353 1.353 0 0 0-.638-.157 2.248 2.248 0 0 0-1.017.24c-.393.192-.698.47-.87.767-.174.297-.22.626-.067.905.153.277.462.429.816.466.355.037.77-.039 1.163-.231a2.15 2.15 0 0 0 .761-.602 1.21 1.21 0 0 0 .266-.64h.008V5.881l-.116.02-6.315 1.043ZM5 4.767h1.667a.433.433 0 1 0 0-.867H5A1.1 1.1 0 0 0 3.9 5v1.667a.433.433 0 0 0 .867 0V5A.233.233 0 0 1 5 4.767Zm-.667 3.8a.433.433 0 1 0 0 .866.433.433 0 0 0 0-.866ZM17 17.133h-1.667a.433.433 0 0 0 0 .867H17a1.1 1.1 0 0 0 1.1-1.1v-1.667a.433.433 0 1 0-.867 0V16.9a.233.233 0 0 1-.233.233Zm.667-3.8a.433.433 0 1 0 0-.866.433.433 0 0 0 0 .866Z"/>
</svg>
